<?xml version="1.0" encoding="utf-8"?>
<!-- Generator: Adobe Illustrator 21.1.0, SVG Export Plug-In . SVG Version: 6.00 Build 0)  -->
<svg version="1.1" id="Слой_1" xmlns="http://www.w3.org/2000/svg" xmlns:xlink="http://www.w3.org/1999/xlink" x="0px" y="0px"
	 viewBox="0 0 128 128" style="enable-background:new 0 0 128 128;" xml:space="preserve">
<style type="text/css">
	.st0{fill:#1E1E1E;}
</style>
<g>
	<path class="st0" d="M16,126h94V23.2L88.8,2H16V126z M90,8.8L103.2,22H90V8.8z M20,6h66v20h20v96H20V6z"/>
	<rect x="28" y="42" class="st0" width="70" height="4"/>
	<rect x="28" y="52" class="st0" width="70" height="4"/>
	<rect x="78" y="62" class="st0" width="20" height="4"/>
	<rect x="48" y="22" class="st0" width="30" height="4"/>
	<path class="st0" d="M79,77c-6.8,0-12.6,4-15.4,9.8H38.3l-7.1,5.7l6.8,8.8h6.8l1.7-1.7l1.7,1.7h6.7l1.7-1.7l1.7,1.7h5.5
		c2.7,5.8,8.6,9.8,15.4,9.8c9.4,0,17-7.6,17-17S88.4,77,79,77z M59.8,97.3L56.5,94l-3.3,3.3h-3.3L46.6,94l-3.3,3.3H40l-3.2-4.2
		l2.9-2.3h22.6c-0.2,1-0.3,2.1-0.3,3.2s0.1,2.2,0.3,3.2h-2.5V97.3z M79,107c-7.2,0-13-5.8-13-13s5.8-13,13-13s13,5.8,13,13
		S86.2,107,79,107z"/>
	<circle class="st0" cx="84.2" cy="94" r="3"/>
</g>
</svg>
