<?xml version="1.0" encoding="utf-8"?>
<!-- Generator: Adobe Illustrator 21.1.0, SVG Export Plug-In . SVG Version: 6.00 Build 0)  -->
<svg version="1.1" id="Слой_1" xmlns="http://www.w3.org/2000/svg" xmlns:xlink="http://www.w3.org/1999/xlink" x="0px" y="0px"
	 viewBox="0 0 128 128" style="enable-background:new 0 0 128 128;" xml:space="preserve">
<style type="text/css">
	.st0{fill:#1E1E1E;}
</style>
<g>
	<circle class="st0" cx="23.5" cy="98" r="3"/>
	<circle class="st0" cx="53.5" cy="98" r="3"/>
	<circle class="st0" cx="103.5" cy="98" r="3"/>
	<path class="st0" d="M107,46H86v40h-2V51c0-2.8-2.2-5-5-5c-0.6,0-1.2,0.1-1.8,0.3L41.8,20.6c-1.1-1-2.8-1.3-4.2-0.7
		c-1.5,0.6-2.5,2.1-2.5,3.7v5.2c0,2.1,1,4.2,2.6,5.4c0.1,0.1,0.5,0.4,0.4,1c-0.1,0.4-0.4,0.7-0.8,0.8c-0.4,0.1-0.7-0.1-0.8-0.2
		c-0.2-0.2-0.4-0.5-0.4-0.8h-4c0,1.5,0.7,2.9,1.8,3.8c1.1,1,2.6,1.4,4.1,1.1c2.1-0.4,3.7-2,4-4c0.3-1.8-0.4-3.7-1.9-4.8
		c-0.7-0.5-1.1-1.4-1.1-2.3v-5.2l0.1,0.1l35.2,25.6C74.1,49.8,74,50.4,74,51v35H2v7h4v-3h8.6c-1.9,2.1-3.1,4.9-3.1,8
		c0,6.6,5.4,12,12,12c5.9,0,10.9-4.3,11.8-10h6.4c1,5.7,5.9,10,11.8,10s10.9-4.3,11.8-10h4.4v4H88v-4h3.7c1,5.7,5.9,10,11.8,10
		s10.9-4.3,11.8-10h3.6c3.9,0,7-3.1,7-7V75.1l-7.7-21.3C116.6,49.2,112,46,107,46z M114.8,56l6.3,17.4l-12.7-2.5
		c-1.4-0.3-2.4-1.5-2.4-2.9V56H114.8z M78,51c0-0.6,0.4-1,1-1s1,0.4,1,1v35h-2V51z M32.5,90h12.2c-1.5,1.7-2.5,3.7-2.9,6h-6.4
		C35,93.7,33.9,91.7,32.5,90z M23.5,106c-4.4,0-8-3.6-8-8s3.6-8,8-8s8,3.6,8,8S27.9,106,23.5,106z M53.5,106c-4.4,0-8-3.6-8-8
		s3.6-8,8-8s8,3.6,8,8S58,106,53.5,106z M84,100H73.7v-4H84V100z M69.7,92v4h-4.4c-0.4-2.3-1.4-4.3-2.9-6H74h10h2h2h6.6
		c-1.5,1.7-2.5,3.7-2.9,6H88v-4H69.7z M103.5,106c-4.4,0-8-3.6-8-8s3.6-8,8-8s8,3.6,8,8S108,106,103.5,106z M119,96h-3.6
		c-0.9-5.5-5.6-9.8-11.4-10l0,0H90V50h17c2,0,3.8,0.8,5.3,2H102v15.9c0,3.3,2.4,6.2,5.6,6.9l14.4,2.9V93C122,94.7,120.7,96,119,96z"
		/>
</g>
</svg>
